<svg xmlns="http://www.w3.org/2000/svg" width="1200" height="630" viewBox="0 0 1200 630">
  <defs>
    <!-- Gradient background -->
    <linearGradient id="bgGradient" x1="0%" y1="0%" x2="100%" y2="100%">
      <stop offset="0%" style="stop-color:#0a5694"/>
      <stop offset="50%" style="stop-color:#0880e8"/>
      <stop offset="100%" style="stop-color:#2b99f8"/>
    </linearGradient>
    
    <!-- Subtle pattern overlay -->
    <pattern id="dots" x="0" y="0" width="40" height="40" patternUnits="userSpaceOnUse">
      <circle cx="20" cy="20" r="1.5" fill="rgba(255,255,255,0.1)"/>
    </pattern>
    
    <!-- Orange accent gradient -->
    <linearGradient id="orangeGradient" x1="0%" y1="0%" x2="100%" y2="0%">
      <stop offset="0%" style="stop-color:#fa8403"/>
      <stop offset="100%" style="stop-color:#ff9f33"/>
    </linearGradient>
  </defs>
  
  <!-- Background -->
  <rect width="1200" height="630" fill="url(#bgGradient)"/>
  <rect width="1200" height="630" fill="url(#dots)"/>
  
  <!-- Decorative elements -->
  <circle cx="100" cy="100" r="200" fill="rgba(255,255,255,0.03)"/>
  <circle cx="1100" cy="530" r="250" fill="rgba(255,255,255,0.03)"/>
  <circle cx="900" cy="80" r="100" fill="rgba(255,255,255,0.02)"/>
  
  <!-- Orange accent line -->
  <rect x="0" y="610" width="1200" height="20" fill="url(#orangeGradient)"/>
  
  <!-- Main content area -->
  <g transform="translate(600, 380)">
    <!-- Tagline -->
    <text x="0" y="0" font-family="Arial, Helvetica, sans-serif" font-size="32" fill="rgba(255,255,255,0.9)" text-anchor="middle">
      Web Development &amp; Digital Solutions
    </text>
    
    <!-- Separator line -->
    <rect x="-100" y="30" width="200" height="3" fill="url(#orangeGradient)" rx="1.5"/>
    
    <!-- Location -->
    <text x="0" y="80" font-family="Arial, Helvetica, sans-serif" font-size="24" fill="rgba(255,255,255,0.7)" text-anchor="middle">
      Victoria BC, Canada
    </text>
  </g>
  
  <!-- Services icons/badges at bottom -->
  <g transform="translate(600, 520)" font-family="Arial, Helvetica, sans-serif" font-size="16" fill="rgba(255,255,255,0.8)">
    <g transform="translate(-350, 0)">
      <rect x="-60" y="-15" width="120" height="30" rx="15" fill="rgba(255,255,255,0.1)"/>
      <text x="0" y="5" text-anchor="middle">💻 Websites</text>
    </g>
    <g transform="translate(-115, 0)">
      <rect x="-70" y="-15" width="140" height="30" rx="15" fill="rgba(255,255,255,0.1)"/>
      <text x="0" y="5" text-anchor="middle">⚡ Web Apps</text>
    </g>
    <g transform="translate(115, 0)">
      <rect x="-55" y="-15" width="110" height="30" rx="15" fill="rgba(255,255,255,0.1)"/>
      <text x="0" y="5" text-anchor="middle">🔧 Software</text>
    </g>
    <g transform="translate(350, 0)">
      <rect x="-60" y="-15" width="120" height="30" rx="15" fill="rgba(255,255,255,0.1)"/>
      <text x="0" y="5" text-anchor="middle">📈 SEO</text>
    </g>
  </g>
  
  <!-- Website URL -->
  <text x="1170" y="580" font-family="Arial, Helvetica, sans-serif" font-size="18" fill="rgba(255,255,255,0.6)" text-anchor="end">
    szystems.com
  </text>
  
</svg>
